<mxfile modified="2021-01-24T06:29:46.791Z" host="app.diagrams.net" agent="5.0 (Windows)" etag="KXzq7BI11wtlS39ZUEv0" version="14.2.7" type="github">
  <diagram id="f106602c-feb2-e66a-4537-3a34d633f6aa" name="Page-1">
    <mxGraphModel dx="3472" dy="1956" grid="1" gridSize="10" guides="1" tooltips="1" connect="1" arrows="1" fold="1" page="1" pageScale="1" pageWidth="1169" pageHeight="827" background="#ffffff" math="0" shadow="0">
      <root>
        <mxCell id="0" />
        <mxCell id="1" parent="0" />
        <mxCell id="evASwciurrHZ3EvQ1T0R-616" value="Project Zone / Cloud Service Provider" style="points=[[0,0,0],[0.25,0,0],[0.5,0,0],[0.75,0,0],[1,0,0],[1,0.25,0],[1,0.5,0],[1,0.75,0],[1,1,0],[0.75,1,0],[0.5,1,0],[0.25,1,0],[0,1,0],[0,0.75,0],[0,0.5,0],[0,0.25,0]];rounded=1;absoluteArcSize=1;arcSize=2;html=1;strokeColor=none;gradientColor=none;shadow=0;dashed=0;fontSize=12;fontColor=#9E9E9E;align=left;verticalAlign=top;spacing=10;spacingTop=-4;fillColor=#F6F6F6;" parent="1" vertex="1">
          <mxGeometry x="20" y="20" width="800" height="740" as="geometry" />
        </mxCell>
        <mxCell id="evASwciurrHZ3EvQ1T0R-617" value="Logical Grouping of Services / Instances" style="points=[[0,0,0],[0.25,0,0],[0.5,0,0],[0.75,0,0],[1,0,0],[1,0.25,0],[1,0.5,0],[1,0.75,0],[1,1,0],[0.75,1,0],[0.5,1,0],[0.25,1,0],[0,1,0],[0,0.75,0],[0,0.5,0],[0,0.25,0]];rounded=1;absoluteArcSize=1;arcSize=2;html=1;strokeColor=none;gradientColor=none;shadow=0;dashed=0;fontSize=12;fontColor=#9E9E9E;align=left;verticalAlign=top;spacing=10;spacingTop=-4;fillColor=#E3F2FD;" parent="evASwciurrHZ3EvQ1T0R-616" vertex="1">
          <mxGeometry width="250" height="180" relative="1" as="geometry">
            <mxPoint x="10" y="50" as="offset" />
          </mxGeometry>
        </mxCell>
        <mxCell id="evASwciurrHZ3EvQ1T0R-618" value="Zone" style="points=[[0,0,0],[0.25,0,0],[0.5,0,0],[0.75,0,0],[1,0,0],[1,0.25,0],[1,0.5,0],[1,0.75,0],[1,1,0],[0.75,1,0],[0.5,1,0],[0.25,1,0],[0,1,0],[0,0.75,0],[0,0.5,0],[0,0.25,0]];rounded=1;absoluteArcSize=1;arcSize=2;html=1;strokeColor=none;gradientColor=none;shadow=0;dashed=0;fontSize=12;fontColor=#9E9E9E;align=left;verticalAlign=top;spacing=10;spacingTop=-4;fillColor=#FFF3E0;" parent="evASwciurrHZ3EvQ1T0R-617" vertex="1">
          <mxGeometry width="230" height="120" relative="1" as="geometry">
            <mxPoint x="10" y="50" as="offset" />
          </mxGeometry>
        </mxCell>
        <mxCell id="evASwciurrHZ3EvQ1T0R-619" value="SubNetwork" style="points=[[0,0,0],[0.25,0,0],[0.5,0,0],[0.75,0,0],[1,0,0],[1,0.25,0],[1,0.5,0],[1,0.75,0],[1,1,0],[0.75,1,0],[0.5,1,0],[0.25,1,0],[0,1,0],[0,0.75,0],[0,0.5,0],[0,0.25,0]];rounded=1;absoluteArcSize=1;arcSize=2;html=1;strokeColor=none;gradientColor=none;shadow=0;dashed=0;fontSize=12;fontColor=#9E9E9E;align=left;verticalAlign=top;spacing=10;spacingTop=-4;fillColor=#EDE7F6;" parent="evASwciurrHZ3EvQ1T0R-618" vertex="1">
          <mxGeometry width="210" height="60" relative="1" as="geometry">
            <mxPoint x="10" y="50" as="offset" />
          </mxGeometry>
        </mxCell>
        <mxCell id="evASwciurrHZ3EvQ1T0R-620" value="Kubernetes cluster" style="points=[[0,0,0],[0.25,0,0],[0.5,0,0],[0.75,0,0],[1,0,0],[1,0.25,0],[1,0.5,0],[1,0.75,0],[1,1,0],[0.75,1,0],[0.5,1,0],[0.25,1,0],[0,1,0],[0,0.75,0],[0,0.5,0],[0,0.25,0]];rounded=1;absoluteArcSize=1;arcSize=2;html=1;strokeColor=none;gradientColor=none;shadow=0;dashed=0;fontSize=12;fontColor=#9E9E9E;align=left;verticalAlign=top;spacing=10;spacingTop=-4;fillColor=#FCE4EC;" parent="evASwciurrHZ3EvQ1T0R-616" vertex="1">
          <mxGeometry width="510" height="480" relative="1" as="geometry">
            <mxPoint x="10" y="240" as="offset" />
          </mxGeometry>
        </mxCell>
        <mxCell id="evASwciurrHZ3EvQ1T0R-621" value="pod" style="points=[[0,0,0],[0.25,0,0],[0.5,0,0],[0.75,0,0],[1,0,0],[1,0.25,0],[1,0.5,0],[1,0.75,0],[1,1,0],[0.75,1,0],[0.5,1,0],[0.25,1,0],[0,1,0],[0,0.75,0],[0,0.5,0],[0,0.25,0]];rounded=1;absoluteArcSize=1;arcSize=2;html=1;strokeColor=none;gradientColor=none;shadow=0;dashed=0;fontSize=12;fontColor=#9E9E9E;align=left;verticalAlign=top;spacing=10;spacingTop=-4;fillColor=#E8F5E9;" parent="evASwciurrHZ3EvQ1T0R-620" vertex="1">
          <mxGeometry width="210" height="60" relative="1" as="geometry">
            <mxPoint x="10" y="50" as="offset" />
          </mxGeometry>
        </mxCell>
        <mxCell id="evASwciurrHZ3EvQ1T0R-632" value="pod" style="points=[[0,0,0],[0.25,0,0],[0.5,0,0],[0.75,0,0],[1,0,0],[1,0.25,0],[1,0.5,0],[1,0.75,0],[1,1,0],[0.75,1,0],[0.5,1,0],[0.25,1,0],[0,1,0],[0,0.75,0],[0,0.5,0],[0,0.25,0]];rounded=1;absoluteArcSize=1;arcSize=2;html=1;strokeColor=none;gradientColor=none;shadow=0;dashed=0;fontSize=12;fontColor=#9E9E9E;align=left;verticalAlign=top;spacing=10;spacingTop=-4;fillColor=#E8F5E9;" parent="evASwciurrHZ3EvQ1T0R-620" vertex="1">
          <mxGeometry width="210" height="60" relative="1" as="geometry">
            <mxPoint x="250" y="50" as="offset" />
          </mxGeometry>
        </mxCell>
        <mxCell id="evASwciurrHZ3EvQ1T0R-633" value="pod" style="points=[[0,0,0],[0.25,0,0],[0.5,0,0],[0.75,0,0],[1,0,0],[1,0.25,0],[1,0.5,0],[1,0.75,0],[1,1,0],[0.75,1,0],[0.5,1,0],[0.25,1,0],[0,1,0],[0,0.75,0],[0,0.5,0],[0,0.25,0]];rounded=1;absoluteArcSize=1;arcSize=2;html=1;strokeColor=none;gradientColor=none;shadow=0;dashed=0;fontSize=12;fontColor=#9E9E9E;align=left;verticalAlign=top;spacing=10;spacingTop=-4;fillColor=#E8F5E9;" parent="evASwciurrHZ3EvQ1T0R-620" vertex="1">
          <mxGeometry width="210" height="60" relative="1" as="geometry">
            <mxPoint x="10" y="120" as="offset" />
          </mxGeometry>
        </mxCell>
        <mxCell id="evASwciurrHZ3EvQ1T0R-634" value="pod" style="points=[[0,0,0],[0.25,0,0],[0.5,0,0],[0.75,0,0],[1,0,0],[1,0.25,0],[1,0.5,0],[1,0.75,0],[1,1,0],[0.75,1,0],[0.5,1,0],[0.25,1,0],[0,1,0],[0,0.75,0],[0,0.5,0],[0,0.25,0]];rounded=1;absoluteArcSize=1;arcSize=2;html=1;strokeColor=none;gradientColor=none;shadow=0;dashed=0;fontSize=12;fontColor=#9E9E9E;align=left;verticalAlign=top;spacing=10;spacingTop=-4;fillColor=#E8F5E9;" parent="evASwciurrHZ3EvQ1T0R-620" vertex="1">
          <mxGeometry width="210" height="60" relative="1" as="geometry">
            <mxPoint x="250" y="120" as="offset" />
          </mxGeometry>
        </mxCell>
        <mxCell id="evASwciurrHZ3EvQ1T0R-635" value="pod" style="points=[[0,0,0],[0.25,0,0],[0.5,0,0],[0.75,0,0],[1,0,0],[1,0.25,0],[1,0.5,0],[1,0.75,0],[1,1,0],[0.75,1,0],[0.5,1,0],[0.25,1,0],[0,1,0],[0,0.75,0],[0,0.5,0],[0,0.25,0]];rounded=1;absoluteArcSize=1;arcSize=2;html=1;strokeColor=none;gradientColor=none;shadow=0;dashed=0;fontSize=12;fontColor=#9E9E9E;align=left;verticalAlign=top;spacing=10;spacingTop=-4;fillColor=#E8F5E9;" parent="evASwciurrHZ3EvQ1T0R-620" vertex="1">
          <mxGeometry width="210" height="60" relative="1" as="geometry">
            <mxPoint x="10" y="190" as="offset" />
          </mxGeometry>
        </mxCell>
        <mxCell id="evASwciurrHZ3EvQ1T0R-636" value="pod" style="points=[[0,0,0],[0.25,0,0],[0.5,0,0],[0.75,0,0],[1,0,0],[1,0.25,0],[1,0.5,0],[1,0.75,0],[1,1,0],[0.75,1,0],[0.5,1,0],[0.25,1,0],[0,1,0],[0,0.75,0],[0,0.5,0],[0,0.25,0]];rounded=1;absoluteArcSize=1;arcSize=2;html=1;strokeColor=none;gradientColor=none;shadow=0;dashed=0;fontSize=12;fontColor=#9E9E9E;align=left;verticalAlign=top;spacing=10;spacingTop=-4;fillColor=#E8F5E9;" parent="evASwciurrHZ3EvQ1T0R-620" vertex="1">
          <mxGeometry width="210" height="60" relative="1" as="geometry">
            <mxPoint x="250" y="190" as="offset" />
          </mxGeometry>
        </mxCell>
        <mxCell id="evASwciurrHZ3EvQ1T0R-637" value="pod" style="points=[[0,0,0],[0.25,0,0],[0.5,0,0],[0.75,0,0],[1,0,0],[1,0.25,0],[1,0.5,0],[1,0.75,0],[1,1,0],[0.75,1,0],[0.5,1,0],[0.25,1,0],[0,1,0],[0,0.75,0],[0,0.5,0],[0,0.25,0]];rounded=1;absoluteArcSize=1;arcSize=2;html=1;strokeColor=none;gradientColor=none;shadow=0;dashed=0;fontSize=12;fontColor=#9E9E9E;align=left;verticalAlign=top;spacing=10;spacingTop=-4;fillColor=#E8F5E9;" parent="evASwciurrHZ3EvQ1T0R-620" vertex="1">
          <mxGeometry width="210" height="60" relative="1" as="geometry">
            <mxPoint x="10" y="260" as="offset" />
          </mxGeometry>
        </mxCell>
        <mxCell id="evASwciurrHZ3EvQ1T0R-638" value="pod" style="points=[[0,0,0],[0.25,0,0],[0.5,0,0],[0.75,0,0],[1,0,0],[1,0.25,0],[1,0.5,0],[1,0.75,0],[1,1,0],[0.75,1,0],[0.5,1,0],[0.25,1,0],[0,1,0],[0,0.75,0],[0,0.5,0],[0,0.25,0]];rounded=1;absoluteArcSize=1;arcSize=2;html=1;strokeColor=none;gradientColor=none;shadow=0;dashed=0;fontSize=12;fontColor=#9E9E9E;align=left;verticalAlign=top;spacing=10;spacingTop=-4;fillColor=#E8F5E9;" parent="evASwciurrHZ3EvQ1T0R-620" vertex="1">
          <mxGeometry width="210" height="60" relative="1" as="geometry">
            <mxPoint x="250" y="260" as="offset" />
          </mxGeometry>
        </mxCell>
        <mxCell id="evASwciurrHZ3EvQ1T0R-639" value="pod" style="points=[[0,0,0],[0.25,0,0],[0.5,0,0],[0.75,0,0],[1,0,0],[1,0.25,0],[1,0.5,0],[1,0.75,0],[1,1,0],[0.75,1,0],[0.5,1,0],[0.25,1,0],[0,1,0],[0,0.75,0],[0,0.5,0],[0,0.25,0]];rounded=1;absoluteArcSize=1;arcSize=2;html=1;strokeColor=none;gradientColor=none;shadow=0;dashed=0;fontSize=12;fontColor=#9E9E9E;align=left;verticalAlign=top;spacing=10;spacingTop=-4;fillColor=#E8F5E9;" parent="evASwciurrHZ3EvQ1T0R-620" vertex="1">
          <mxGeometry width="210" height="60" relative="1" as="geometry">
            <mxPoint x="10" y="330" as="offset" />
          </mxGeometry>
        </mxCell>
        <mxCell id="evASwciurrHZ3EvQ1T0R-640" value="pod" style="points=[[0,0,0],[0.25,0,0],[0.5,0,0],[0.75,0,0],[1,0,0],[1,0.25,0],[1,0.5,0],[1,0.75,0],[1,1,0],[0.75,1,0],[0.5,1,0],[0.25,1,0],[0,1,0],[0,0.75,0],[0,0.5,0],[0,0.25,0]];rounded=1;absoluteArcSize=1;arcSize=2;html=1;strokeColor=none;gradientColor=none;shadow=0;dashed=0;fontSize=12;fontColor=#9E9E9E;align=left;verticalAlign=top;spacing=10;spacingTop=-4;fillColor=#E8F5E9;" parent="evASwciurrHZ3EvQ1T0R-620" vertex="1">
          <mxGeometry width="210" height="60" relative="1" as="geometry">
            <mxPoint x="250" y="330" as="offset" />
          </mxGeometry>
        </mxCell>
        <mxCell id="evASwciurrHZ3EvQ1T0R-641" value="pod" style="points=[[0,0,0],[0.25,0,0],[0.5,0,0],[0.75,0,0],[1,0,0],[1,0.25,0],[1,0.5,0],[1,0.75,0],[1,1,0],[0.75,1,0],[0.5,1,0],[0.25,1,0],[0,1,0],[0,0.75,0],[0,0.5,0],[0,0.25,0]];rounded=1;absoluteArcSize=1;arcSize=2;html=1;strokeColor=none;gradientColor=none;shadow=0;dashed=0;fontSize=12;fontColor=#9E9E9E;align=left;verticalAlign=top;spacing=10;spacingTop=-4;fillColor=#E8F5E9;" parent="evASwciurrHZ3EvQ1T0R-620" vertex="1">
          <mxGeometry width="210" height="60" relative="1" as="geometry">
            <mxPoint x="10" y="400" as="offset" />
          </mxGeometry>
        </mxCell>
        <mxCell id="evASwciurrHZ3EvQ1T0R-642" value="pod" style="points=[[0,0,0],[0.25,0,0],[0.5,0,0],[0.75,0,0],[1,0,0],[1,0.25,0],[1,0.5,0],[1,0.75,0],[1,1,0],[0.75,1,0],[0.5,1,0],[0.25,1,0],[0,1,0],[0,0.75,0],[0,0.5,0],[0,0.25,0]];rounded=1;absoluteArcSize=1;arcSize=2;html=1;strokeColor=none;gradientColor=none;shadow=0;dashed=0;fontSize=12;fontColor=#9E9E9E;align=left;verticalAlign=top;spacing=10;spacingTop=-4;fillColor=#E8F5E9;" parent="evASwciurrHZ3EvQ1T0R-620" vertex="1">
          <mxGeometry width="210" height="60" relative="1" as="geometry">
            <mxPoint x="250" y="400" as="offset" />
          </mxGeometry>
        </mxCell>
        <mxCell id="evASwciurrHZ3EvQ1T0R-623" value="Region" style="points=[[0,0,0],[0.25,0,0],[0.5,0,0],[0.75,0,0],[1,0,0],[1,0.25,0],[1,0.5,0],[1,0.75,0],[1,1,0],[0.75,1,0],[0.5,1,0],[0.25,1,0],[0,1,0],[0,0.75,0],[0,0.5,0],[0,0.25,0]];rounded=1;absoluteArcSize=1;arcSize=2;html=1;strokeColor=none;gradientColor=none;shadow=0;dashed=0;fontSize=12;fontColor=#9E9E9E;align=left;verticalAlign=top;spacing=10;spacingTop=-4;fillColor=#ECEFF1;" parent="evASwciurrHZ3EvQ1T0R-616" vertex="1">
          <mxGeometry width="250" height="310" relative="1" as="geometry">
            <mxPoint x="530" y="10" as="offset" />
          </mxGeometry>
        </mxCell>
        <mxCell id="evASwciurrHZ3EvQ1T0R-624" value="Zone" style="points=[[0,0,0],[0.25,0,0],[0.5,0,0],[0.75,0,0],[1,0,0],[1,0.25,0],[1,0.5,0],[1,0.75,0],[1,1,0],[0.75,1,0],[0.5,1,0],[0.25,1,0],[0,1,0],[0,0.75,0],[0,0.5,0],[0,0.25,0]];rounded=1;absoluteArcSize=1;arcSize=2;html=1;strokeColor=none;gradientColor=none;shadow=0;dashed=0;fontSize=12;fontColor=#9E9E9E;align=left;verticalAlign=top;spacing=10;spacingTop=-4;fillColor=#FFF3E0;" parent="evASwciurrHZ3EvQ1T0R-623" vertex="1">
          <mxGeometry width="230" height="250" relative="1" as="geometry">
            <mxPoint x="10" y="50" as="offset" />
          </mxGeometry>
        </mxCell>
        <mxCell id="evASwciurrHZ3EvQ1T0R-625" value="Firewall" style="points=[[0,0,0],[0.25,0,0],[0.5,0,0],[0.75,0,0],[1,0,0],[1,0.25,0],[1,0.5,0],[1,0.75,0],[1,1,0],[0.75,1,0],[0.5,1,0],[0.25,1,0],[0,1,0],[0,0.75,0],[0,0.5,0],[0,0.25,0]];rounded=1;absoluteArcSize=1;arcSize=2;html=1;strokeColor=none;gradientColor=none;shadow=0;dashed=0;fontSize=12;fontColor=#9E9E9E;align=left;verticalAlign=top;spacing=10;spacingTop=-4;fillColor=#FBE9E7;" parent="evASwciurrHZ3EvQ1T0R-624" vertex="1">
          <mxGeometry width="210" height="190" relative="1" as="geometry">
            <mxPoint x="10" y="50" as="offset" />
          </mxGeometry>
        </mxCell>
        <mxCell id="evASwciurrHZ3EvQ1T0R-626" value="Instance Group" style="points=[[0,0,0],[0.25,0,0],[0.5,0,0],[0.75,0,0],[1,0,0],[1,0.25,0],[1,0.5,0],[1,0.75,0],[1,1,0],[0.75,1,0],[0.5,1,0],[0.25,1,0],[0,1,0],[0,0.75,0],[0,0.5,0],[0,0.25,0]];rounded=1;absoluteArcSize=1;arcSize=2;html=1;strokeColor=none;gradientColor=none;shadow=0;dashed=0;fontSize=12;fontColor=#9E9E9E;align=left;verticalAlign=top;spacing=10;spacingTop=-4;fillColor=#F9FBE7;" parent="evASwciurrHZ3EvQ1T0R-625" vertex="1">
          <mxGeometry width="190" height="60" relative="1" as="geometry">
            <mxPoint x="10" y="50" as="offset" />
          </mxGeometry>
        </mxCell>
        <mxCell id="evASwciurrHZ3EvQ1T0R-627" value="Replica Pool" style="points=[[0,0,0],[0.25,0,0],[0.5,0,0],[0.75,0,0],[1,0,0],[1,0.25,0],[1,0.5,0],[1,0.75,0],[1,1,0],[0.75,1,0],[0.5,1,0],[0.25,1,0],[0,1,0],[0,0.75,0],[0,0.5,0],[0,0.25,0]];rounded=1;absoluteArcSize=1;arcSize=2;html=1;strokeColor=none;gradientColor=none;shadow=0;dashed=0;fontSize=12;fontColor=#9E9E9E;align=left;verticalAlign=top;spacing=10;spacingTop=-4;fillColor=#E0F7FA;" parent="evASwciurrHZ3EvQ1T0R-625" vertex="1">
          <mxGeometry width="190" height="60" relative="1" as="geometry">
            <mxPoint x="10" y="120" as="offset" />
          </mxGeometry>
        </mxCell>
        <mxCell id="evASwciurrHZ3EvQ1T0R-685" value="" style="group" parent="1" vertex="1" connectable="0">
          <mxGeometry x="890" y="180" width="785" height="430" as="geometry" />
        </mxCell>
        <mxCell id="evASwciurrHZ3EvQ1T0R-651" value="Infrastructure&#xa;System" style="points=[[0,0,0],[0.25,0,0],[0.5,0,0],[0.75,0,0],[1,0,0],[1,0.25,0],[1,0.5,0],[1,0.75,0],[1,1,0],[0.75,1,0],[0.5,1,0],[0.25,1,0],[0,1,0],[0,0.75,0],[0,0.5,0],[0,0.25,0]];rounded=1;absoluteArcSize=1;arcSize=2;html=1;strokeColor=none;gradientColor=none;shadow=0;dashed=0;fontSize=12;fontColor=#9E9E9E;align=left;verticalAlign=top;spacing=10;spacingTop=-4;fillColor=#F3E5F5;" parent="evASwciurrHZ3EvQ1T0R-685" vertex="1">
          <mxGeometry width="785" height="430" as="geometry" />
        </mxCell>
        <mxCell id="evASwciurrHZ3EvQ1T0R-652" value="" style="points=[[0,0,0],[0.25,0,0],[0.5,0,0],[0.75,0,0],[1,0,0],[1,0.25,0],[1,0.5,0],[1,0.75,0],[1,1,0],[0.75,1,0],[0.5,1,0],[0.25,1,0],[0,1,0],[0,0.75,0],[0,0.5,0],[0,0.25,0]];rounded=1;absoluteArcSize=1;arcSize=2;html=1;strokeColor=none;gradientColor=none;shadow=0;dashed=0;fontSize=12;fontColor=#9E9E9E;align=left;verticalAlign=top;spacing=10;spacingTop=-4;" parent="evASwciurrHZ3EvQ1T0R-685" vertex="1">
          <mxGeometry x="50" y="45" width="710" height="340" as="geometry" />
        </mxCell>
        <mxCell id="evASwciurrHZ3EvQ1T0R-653" value="Users" style="strokeColor=#dddddd;shadow=1;strokeWidth=1;rounded=1;absoluteArcSize=1;arcSize=2;labelPosition=center;verticalLabelPosition=middle;align=center;verticalAlign=bottom;spacingLeft=0;fontColor=#999999;fontSize=12;whiteSpace=wrap;spacingBottom=2;" parent="evASwciurrHZ3EvQ1T0R-685" vertex="1">
          <mxGeometry x="70" y="73" width="70" height="85" as="geometry" />
        </mxCell>
        <mxCell id="evASwciurrHZ3EvQ1T0R-654" value="" style="dashed=0;connectable=0;html=1;fillColor=#757575;strokeColor=none;shape=mxgraph.gcp2.users;part=1;" parent="evASwciurrHZ3EvQ1T0R-653" vertex="1">
          <mxGeometry x="0.5" width="50" height="31.5" relative="1" as="geometry">
            <mxPoint x="-25" y="19.25" as="offset" />
          </mxGeometry>
        </mxCell>
        <mxCell id="evASwciurrHZ3EvQ1T0R-655" value="" style="strokeColor=#dddddd;shadow=1;strokeWidth=1;rounded=1;absoluteArcSize=1;arcSize=2;" parent="evASwciurrHZ3EvQ1T0R-685" vertex="1">
          <mxGeometry x="200" y="93.5" width="130" height="44" as="geometry" />
        </mxCell>
        <mxCell id="evASwciurrHZ3EvQ1T0R-656" value="HTTPS&#xa;Load Balancer" style="dashed=0;connectable=0;html=1;fillColor=#757575;strokeColor=none;shape=mxgraph.gcp2.network_load_balancer;part=1;labelPosition=right;verticalLabelPosition=middle;align=left;verticalAlign=middle;spacingLeft=5;fontSize=12;" parent="evASwciurrHZ3EvQ1T0R-655" vertex="1">
          <mxGeometry y="0.5" width="32" height="32" relative="1" as="geometry">
            <mxPoint x="5" y="-16" as="offset" />
          </mxGeometry>
        </mxCell>
        <mxCell id="evASwciurrHZ3EvQ1T0R-661" value="" style="edgeStyle=orthogonalEdgeStyle;rounded=0;orthogonalLoop=1;jettySize=auto;html=1;" parent="evASwciurrHZ3EvQ1T0R-685" source="evASwciurrHZ3EvQ1T0R-653" target="evASwciurrHZ3EvQ1T0R-655" edge="1">
          <mxGeometry relative="1" as="geometry" />
        </mxCell>
        <mxCell id="evASwciurrHZ3EvQ1T0R-659" value="" style="strokeColor=#dddddd;shadow=1;strokeWidth=1;rounded=1;absoluteArcSize=1;arcSize=2;" parent="evASwciurrHZ3EvQ1T0R-685" vertex="1">
          <mxGeometry x="180" y="197.5" width="170" height="60" as="geometry" />
        </mxCell>
        <mxCell id="evASwciurrHZ3EvQ1T0R-660" value="&lt;font color=&quot;#000000&quot;&gt;Name&lt;/font&gt;&lt;br&gt;Kubernetes Engine" style="dashed=0;connectable=0;html=1;fillColor=#5184F3;strokeColor=none;shape=mxgraph.gcp2.hexIcon;prIcon=container_engine;part=1;labelPosition=right;verticalLabelPosition=middle;align=left;verticalAlign=middle;spacingLeft=5;fontColor=#999999;fontSize=12;" parent="evASwciurrHZ3EvQ1T0R-659" vertex="1">
          <mxGeometry y="0.5" width="44" height="39" relative="1" as="geometry">
            <mxPoint x="5" y="-19.5" as="offset" />
          </mxGeometry>
        </mxCell>
        <mxCell id="evASwciurrHZ3EvQ1T0R-662" value="" style="edgeStyle=orthogonalEdgeStyle;rounded=0;orthogonalLoop=1;jettySize=auto;html=1;" parent="evASwciurrHZ3EvQ1T0R-685" source="evASwciurrHZ3EvQ1T0R-655" target="evASwciurrHZ3EvQ1T0R-659" edge="1">
          <mxGeometry relative="1" as="geometry" />
        </mxCell>
        <mxCell id="evASwciurrHZ3EvQ1T0R-663" value="" style="html=1;aspect=fixed;strokeColor=none;shadow=0;align=center;verticalAlign=top;fillColor=#3B8DF1;shape=mxgraph.gcp2.node" parent="evASwciurrHZ3EvQ1T0R-685" vertex="1">
          <mxGeometry x="450" y="105" width="50" height="62.5" as="geometry" />
        </mxCell>
        <mxCell id="evASwciurrHZ3EvQ1T0R-671" style="edgeStyle=orthogonalEdgeStyle;rounded=0;orthogonalLoop=1;jettySize=auto;html=1;entryX=-0.008;entryY=0.456;entryDx=0;entryDy=0;entryPerimeter=0;" parent="evASwciurrHZ3EvQ1T0R-685" source="evASwciurrHZ3EvQ1T0R-659" target="evASwciurrHZ3EvQ1T0R-663" edge="1">
          <mxGeometry relative="1" as="geometry" />
        </mxCell>
        <mxCell id="evASwciurrHZ3EvQ1T0R-664" value="" style="html=1;aspect=fixed;strokeColor=none;shadow=0;align=center;verticalAlign=top;fillColor=#3B8DF1;shape=mxgraph.gcp2.node" parent="evASwciurrHZ3EvQ1T0R-685" vertex="1">
          <mxGeometry x="450" y="196.25" width="50" height="62.5" as="geometry" />
        </mxCell>
        <mxCell id="evASwciurrHZ3EvQ1T0R-670" value="" style="edgeStyle=orthogonalEdgeStyle;rounded=0;orthogonalLoop=1;jettySize=auto;html=1;" parent="evASwciurrHZ3EvQ1T0R-685" source="evASwciurrHZ3EvQ1T0R-659" target="evASwciurrHZ3EvQ1T0R-664" edge="1">
          <mxGeometry relative="1" as="geometry" />
        </mxCell>
        <mxCell id="evASwciurrHZ3EvQ1T0R-672" value="" style="html=1;aspect=fixed;strokeColor=none;shadow=0;align=center;verticalAlign=top;fillColor=#3B8DF1;shape=mxgraph.gcp2.node" parent="evASwciurrHZ3EvQ1T0R-685" vertex="1">
          <mxGeometry x="450" y="287.25" width="50" height="62.5" as="geometry" />
        </mxCell>
        <mxCell id="evASwciurrHZ3EvQ1T0R-673" style="edgeStyle=orthogonalEdgeStyle;rounded=0;orthogonalLoop=1;jettySize=auto;html=1;entryX=-0.008;entryY=0.571;entryDx=0;entryDy=0;entryPerimeter=0;" parent="evASwciurrHZ3EvQ1T0R-685" source="evASwciurrHZ3EvQ1T0R-659" target="evASwciurrHZ3EvQ1T0R-672" edge="1">
          <mxGeometry relative="1" as="geometry" />
        </mxCell>
        <mxCell id="evASwciurrHZ3EvQ1T0R-674" value="" style="html=1;dashed=0;whitespace=wrap;fillColor=#2875E2;strokeColor=#ffffff;points=[[0.005,0.63,0],[0.1,0.2,0],[0.9,0.2,0],[0.5,0,0],[0.995,0.63,0],[0.72,0.99,0],[0.5,1,0],[0.28,0.99,0]];shape=mxgraph.kubernetes.icon;prIcon=pod" parent="evASwciurrHZ3EvQ1T0R-685" vertex="1">
          <mxGeometry x="590" y="203.5" width="50" height="48" as="geometry" />
        </mxCell>
        <mxCell id="evASwciurrHZ3EvQ1T0R-675" style="edgeStyle=orthogonalEdgeStyle;rounded=0;orthogonalLoop=1;jettySize=auto;html=1;" parent="evASwciurrHZ3EvQ1T0R-685" source="evASwciurrHZ3EvQ1T0R-663" target="evASwciurrHZ3EvQ1T0R-674" edge="1">
          <mxGeometry relative="1" as="geometry" />
        </mxCell>
        <mxCell id="evASwciurrHZ3EvQ1T0R-676" style="edgeStyle=orthogonalEdgeStyle;rounded=0;orthogonalLoop=1;jettySize=auto;html=1;" parent="evASwciurrHZ3EvQ1T0R-685" source="evASwciurrHZ3EvQ1T0R-664" target="evASwciurrHZ3EvQ1T0R-674" edge="1">
          <mxGeometry relative="1" as="geometry" />
        </mxCell>
        <mxCell id="evASwciurrHZ3EvQ1T0R-677" style="edgeStyle=orthogonalEdgeStyle;rounded=0;orthogonalLoop=1;jettySize=auto;html=1;" parent="evASwciurrHZ3EvQ1T0R-685" source="evASwciurrHZ3EvQ1T0R-672" target="evASwciurrHZ3EvQ1T0R-674" edge="1">
          <mxGeometry relative="1" as="geometry" />
        </mxCell>
        <mxCell id="evASwciurrHZ3EvQ1T0R-678" value="Node 1" style="text;html=1;strokeColor=none;fillColor=none;align=center;verticalAlign=middle;whiteSpace=wrap;rounded=0;" parent="evASwciurrHZ3EvQ1T0R-685" vertex="1">
          <mxGeometry x="450" y="85" width="55" height="20" as="geometry" />
        </mxCell>
        <mxCell id="evASwciurrHZ3EvQ1T0R-679" value="&lt;div&gt;Node 2&lt;/div&gt;" style="text;html=1;strokeColor=none;fillColor=none;align=center;verticalAlign=middle;whiteSpace=wrap;rounded=0;" parent="evASwciurrHZ3EvQ1T0R-685" vertex="1">
          <mxGeometry x="447.5" y="177.5" width="55" height="20" as="geometry" />
        </mxCell>
        <mxCell id="evASwciurrHZ3EvQ1T0R-680" value="&lt;div&gt;Node 3&lt;/div&gt;" style="text;html=1;strokeColor=none;fillColor=none;align=center;verticalAlign=middle;whiteSpace=wrap;rounded=0;" parent="evASwciurrHZ3EvQ1T0R-685" vertex="1">
          <mxGeometry x="447.5" y="267.25" width="55" height="20" as="geometry" />
        </mxCell>
        <mxCell id="evASwciurrHZ3EvQ1T0R-681" value="12 Pod/Services" style="text;html=1;strokeColor=none;fillColor=none;align=center;verticalAlign=middle;whiteSpace=wrap;rounded=0;" parent="evASwciurrHZ3EvQ1T0R-685" vertex="1">
          <mxGeometry x="640" y="217.5" width="110" height="20" as="geometry" />
        </mxCell>
        <mxCell id="evASwciurrHZ3EvQ1T0R-687" value="" style="group" parent="1" vertex="1" connectable="0">
          <mxGeometry x="1754" y="180" width="785" height="430" as="geometry" />
        </mxCell>
        <mxCell id="evASwciurrHZ3EvQ1T0R-688" value="Infrastructure&#xa;System" style="points=[[0,0,0],[0.25,0,0],[0.5,0,0],[0.75,0,0],[1,0,0],[1,0.25,0],[1,0.5,0],[1,0.75,0],[1,1,0],[0.75,1,0],[0.5,1,0],[0.25,1,0],[0,1,0],[0,0.75,0],[0,0.5,0],[0,0.25,0]];rounded=1;absoluteArcSize=1;arcSize=2;html=1;strokeColor=none;gradientColor=none;shadow=0;dashed=0;fontSize=12;fontColor=#9E9E9E;align=left;verticalAlign=top;spacing=10;spacingTop=-4;fillColor=#F3E5F5;" parent="evASwciurrHZ3EvQ1T0R-687" vertex="1">
          <mxGeometry width="785" height="430" as="geometry" />
        </mxCell>
        <mxCell id="evASwciurrHZ3EvQ1T0R-689" value="" style="points=[[0,0,0],[0.25,0,0],[0.5,0,0],[0.75,0,0],[1,0,0],[1,0.25,0],[1,0.5,0],[1,0.75,0],[1,1,0],[0.75,1,0],[0.5,1,0],[0.25,1,0],[0,1,0],[0,0.75,0],[0,0.5,0],[0,0.25,0]];rounded=1;absoluteArcSize=1;arcSize=2;html=1;strokeColor=none;gradientColor=none;shadow=0;dashed=0;fontSize=12;fontColor=#9E9E9E;align=left;verticalAlign=top;spacing=10;spacingTop=-4;" parent="evASwciurrHZ3EvQ1T0R-687" vertex="1">
          <mxGeometry x="50" y="45" width="710" height="340" as="geometry" />
        </mxCell>
        <mxCell id="evASwciurrHZ3EvQ1T0R-712" style="edgeStyle=orthogonalEdgeStyle;rounded=0;orthogonalLoop=1;jettySize=auto;html=1;" parent="evASwciurrHZ3EvQ1T0R-687" source="evASwciurrHZ3EvQ1T0R-690" target="evASwciurrHZ3EvQ1T0R-695" edge="1">
          <mxGeometry relative="1" as="geometry" />
        </mxCell>
        <mxCell id="evASwciurrHZ3EvQ1T0R-690" value="DevOps" style="strokeColor=#dddddd;shadow=1;strokeWidth=1;rounded=1;absoluteArcSize=1;arcSize=2;labelPosition=center;verticalLabelPosition=middle;align=center;verticalAlign=bottom;spacingLeft=0;fontColor=#999999;fontSize=12;whiteSpace=wrap;spacingBottom=2;" parent="evASwciurrHZ3EvQ1T0R-687" vertex="1">
          <mxGeometry x="60" y="185" width="70" height="85" as="geometry" />
        </mxCell>
        <mxCell id="evASwciurrHZ3EvQ1T0R-691" value="" style="dashed=0;connectable=0;html=1;fillColor=#757575;strokeColor=none;shape=mxgraph.gcp2.users;part=1;" parent="evASwciurrHZ3EvQ1T0R-690" vertex="1">
          <mxGeometry x="0.5" width="50" height="31.5" relative="1" as="geometry">
            <mxPoint x="-25" y="19.25" as="offset" />
          </mxGeometry>
        </mxCell>
        <mxCell id="evASwciurrHZ3EvQ1T0R-695" value="" style="strokeColor=#dddddd;shadow=1;strokeWidth=1;rounded=1;absoluteArcSize=1;arcSize=2;" parent="evASwciurrHZ3EvQ1T0R-687" vertex="1">
          <mxGeometry x="180" y="197.5" width="170" height="60" as="geometry" />
        </mxCell>
        <mxCell id="evASwciurrHZ3EvQ1T0R-696" value="&lt;font color=&quot;#000000&quot;&gt;Name&lt;/font&gt;&lt;br&gt;Kubernetes Engine" style="dashed=0;connectable=0;html=1;fillColor=#5184F3;strokeColor=none;shape=mxgraph.gcp2.hexIcon;prIcon=container_engine;part=1;labelPosition=right;verticalLabelPosition=middle;align=left;verticalAlign=middle;spacingLeft=5;fontColor=#999999;fontSize=12;" parent="evASwciurrHZ3EvQ1T0R-695" vertex="1">
          <mxGeometry y="0.5" width="44" height="39" relative="1" as="geometry">
            <mxPoint x="5" y="-19.5" as="offset" />
          </mxGeometry>
        </mxCell>
        <mxCell id="evASwciurrHZ3EvQ1T0R-698" value="" style="html=1;aspect=fixed;strokeColor=none;shadow=0;align=center;verticalAlign=top;fillColor=#3B8DF1;shape=mxgraph.gcp2.node" parent="evASwciurrHZ3EvQ1T0R-687" vertex="1">
          <mxGeometry x="450" y="105" width="50" height="62.5" as="geometry" />
        </mxCell>
        <mxCell id="evASwciurrHZ3EvQ1T0R-699" style="edgeStyle=orthogonalEdgeStyle;rounded=0;orthogonalLoop=1;jettySize=auto;html=1;entryX=-0.008;entryY=0.456;entryDx=0;entryDy=0;entryPerimeter=0;" parent="evASwciurrHZ3EvQ1T0R-687" source="evASwciurrHZ3EvQ1T0R-695" target="evASwciurrHZ3EvQ1T0R-698" edge="1">
          <mxGeometry relative="1" as="geometry" />
        </mxCell>
        <mxCell id="evASwciurrHZ3EvQ1T0R-700" value="" style="html=1;aspect=fixed;strokeColor=none;shadow=0;align=center;verticalAlign=top;fillColor=#3B8DF1;shape=mxgraph.gcp2.node" parent="evASwciurrHZ3EvQ1T0R-687" vertex="1">
          <mxGeometry x="450" y="196.25" width="50" height="62.5" as="geometry" />
        </mxCell>
        <mxCell id="evASwciurrHZ3EvQ1T0R-701" value="" style="edgeStyle=orthogonalEdgeStyle;rounded=0;orthogonalLoop=1;jettySize=auto;html=1;" parent="evASwciurrHZ3EvQ1T0R-687" source="evASwciurrHZ3EvQ1T0R-695" target="evASwciurrHZ3EvQ1T0R-700" edge="1">
          <mxGeometry relative="1" as="geometry" />
        </mxCell>
        <mxCell id="evASwciurrHZ3EvQ1T0R-702" value="" style="html=1;aspect=fixed;strokeColor=none;shadow=0;align=center;verticalAlign=top;fillColor=#3B8DF1;shape=mxgraph.gcp2.node" parent="evASwciurrHZ3EvQ1T0R-687" vertex="1">
          <mxGeometry x="450" y="287.25" width="50" height="62.5" as="geometry" />
        </mxCell>
        <mxCell id="evASwciurrHZ3EvQ1T0R-703" style="edgeStyle=orthogonalEdgeStyle;rounded=0;orthogonalLoop=1;jettySize=auto;html=1;entryX=-0.008;entryY=0.571;entryDx=0;entryDy=0;entryPerimeter=0;" parent="evASwciurrHZ3EvQ1T0R-687" source="evASwciurrHZ3EvQ1T0R-695" target="evASwciurrHZ3EvQ1T0R-702" edge="1">
          <mxGeometry relative="1" as="geometry" />
        </mxCell>
        <mxCell id="evASwciurrHZ3EvQ1T0R-704" value="" style="html=1;dashed=0;whitespace=wrap;fillColor=#2875E2;strokeColor=#ffffff;points=[[0.005,0.63,0],[0.1,0.2,0],[0.9,0.2,0],[0.5,0,0],[0.995,0.63,0],[0.72,0.99,0],[0.5,1,0],[0.28,0.99,0]];shape=mxgraph.kubernetes.icon;prIcon=pod" parent="evASwciurrHZ3EvQ1T0R-687" vertex="1">
          <mxGeometry x="590" y="203.5" width="50" height="48" as="geometry" />
        </mxCell>
        <mxCell id="evASwciurrHZ3EvQ1T0R-705" style="edgeStyle=orthogonalEdgeStyle;rounded=0;orthogonalLoop=1;jettySize=auto;html=1;" parent="evASwciurrHZ3EvQ1T0R-687" source="evASwciurrHZ3EvQ1T0R-698" target="evASwciurrHZ3EvQ1T0R-704" edge="1">
          <mxGeometry relative="1" as="geometry" />
        </mxCell>
        <mxCell id="evASwciurrHZ3EvQ1T0R-706" style="edgeStyle=orthogonalEdgeStyle;rounded=0;orthogonalLoop=1;jettySize=auto;html=1;" parent="evASwciurrHZ3EvQ1T0R-687" source="evASwciurrHZ3EvQ1T0R-700" target="evASwciurrHZ3EvQ1T0R-704" edge="1">
          <mxGeometry relative="1" as="geometry" />
        </mxCell>
        <mxCell id="evASwciurrHZ3EvQ1T0R-707" style="edgeStyle=orthogonalEdgeStyle;rounded=0;orthogonalLoop=1;jettySize=auto;html=1;" parent="evASwciurrHZ3EvQ1T0R-687" source="evASwciurrHZ3EvQ1T0R-702" target="evASwciurrHZ3EvQ1T0R-704" edge="1">
          <mxGeometry relative="1" as="geometry" />
        </mxCell>
        <mxCell id="evASwciurrHZ3EvQ1T0R-708" value="Node 1" style="text;html=1;strokeColor=none;fillColor=none;align=center;verticalAlign=middle;whiteSpace=wrap;rounded=0;" parent="evASwciurrHZ3EvQ1T0R-687" vertex="1">
          <mxGeometry x="450" y="85" width="55" height="20" as="geometry" />
        </mxCell>
        <mxCell id="evASwciurrHZ3EvQ1T0R-709" value="&lt;div&gt;Node 2&lt;/div&gt;" style="text;html=1;strokeColor=none;fillColor=none;align=center;verticalAlign=middle;whiteSpace=wrap;rounded=0;" parent="evASwciurrHZ3EvQ1T0R-687" vertex="1">
          <mxGeometry x="447.5" y="177.5" width="55" height="20" as="geometry" />
        </mxCell>
        <mxCell id="evASwciurrHZ3EvQ1T0R-710" value="&lt;div&gt;Node 3&lt;/div&gt;" style="text;html=1;strokeColor=none;fillColor=none;align=center;verticalAlign=middle;whiteSpace=wrap;rounded=0;" parent="evASwciurrHZ3EvQ1T0R-687" vertex="1">
          <mxGeometry x="447.5" y="267.25" width="55" height="20" as="geometry" />
        </mxCell>
        <mxCell id="evASwciurrHZ3EvQ1T0R-711" value="12 Pod/Services" style="text;html=1;strokeColor=none;fillColor=none;align=center;verticalAlign=middle;whiteSpace=wrap;rounded=0;" parent="evASwciurrHZ3EvQ1T0R-687" vertex="1">
          <mxGeometry x="640" y="217.5" width="110" height="20" as="geometry" />
        </mxCell>
        <mxCell id="d-muOAlDr2GjQX8LwhFV-101" value="" style="group" vertex="1" connectable="0" parent="1">
          <mxGeometry x="20" y="850" width="810" height="450" as="geometry" />
        </mxCell>
        <mxCell id="d-muOAlDr2GjQX8LwhFV-75" value="Infrastructure&#xa;System" style="points=[[0,0,0],[0.25,0,0],[0.5,0,0],[0.75,0,0],[1,0,0],[1,0.25,0],[1,0.5,0],[1,0.75,0],[1,1,0],[0.75,1,0],[0.5,1,0],[0.25,1,0],[0,1,0],[0,0.75,0],[0,0.5,0],[0,0.25,0]];rounded=1;absoluteArcSize=1;arcSize=2;html=1;strokeColor=none;gradientColor=none;shadow=0;dashed=0;fontSize=12;fontColor=#9E9E9E;align=left;verticalAlign=top;spacing=10;spacingTop=-4;fillColor=#F3E5F5;" vertex="1" parent="d-muOAlDr2GjQX8LwhFV-101">
          <mxGeometry width="810" height="410" as="geometry" />
        </mxCell>
        <mxCell id="d-muOAlDr2GjQX8LwhFV-76" value="User 1" style="points=[[0,0,0],[0.25,0,0],[0.5,0,0],[0.75,0,0],[1,0,0],[1,0.25,0],[1,0.5,0],[1,0.75,0],[1,1,0],[0.75,1,0],[0.5,1,0],[0.25,1,0],[0,1,0],[0,0.75,0],[0,0.5,0],[0,0.25,0]];rounded=1;absoluteArcSize=1;arcSize=2;html=1;strokeColor=none;gradientColor=none;shadow=0;dashed=0;fontSize=12;fontColor=#9E9E9E;align=left;verticalAlign=top;spacing=10;spacingTop=-4;" vertex="1" parent="d-muOAlDr2GjQX8LwhFV-101">
          <mxGeometry x="10" y="50" width="770" height="330" as="geometry" />
        </mxCell>
        <mxCell id="d-muOAlDr2GjQX8LwhFV-77" value="Cloud Computer " style="points=[[0,0,0],[0.25,0,0],[0.5,0,0],[0.75,0,0],[1,0,0],[1,0.25,0],[1,0.5,0],[1,0.75,0],[1,1,0],[0.75,1,0],[0.5,1,0],[0.25,1,0],[0,1,0],[0,0.75,0],[0,0.5,0],[0,0.25,0]];rounded=1;absoluteArcSize=1;arcSize=2;html=1;strokeColor=none;gradientColor=none;shadow=0;dashed=0;fontSize=12;fontColor=#9E9E9E;align=left;verticalAlign=top;spacing=10;spacingTop=-4;fillColor=#FFF8E1;" vertex="1" parent="d-muOAlDr2GjQX8LwhFV-101">
          <mxGeometry x="340" y="70" width="400" height="300" as="geometry" />
        </mxCell>
        <mxCell id="d-muOAlDr2GjQX8LwhFV-80" value="DevOps" style="strokeColor=#dddddd;shadow=1;strokeWidth=1;rounded=1;absoluteArcSize=1;arcSize=2;labelPosition=center;verticalLabelPosition=middle;align=center;verticalAlign=bottom;spacingLeft=0;fontColor=#999999;fontSize=12;whiteSpace=wrap;spacingBottom=2;" vertex="1" parent="d-muOAlDr2GjQX8LwhFV-101">
          <mxGeometry x="20" y="90" width="70" height="85" as="geometry" />
        </mxCell>
        <mxCell id="d-muOAlDr2GjQX8LwhFV-81" value="" style="dashed=0;connectable=0;html=1;fillColor=#757575;strokeColor=none;shape=mxgraph.gcp2.users;part=1;" vertex="1" parent="d-muOAlDr2GjQX8LwhFV-80">
          <mxGeometry x="0.5" width="50" height="31.5" relative="1" as="geometry">
            <mxPoint x="-25" y="19.25" as="offset" />
          </mxGeometry>
        </mxCell>
        <mxCell id="d-muOAlDr2GjQX8LwhFV-151" style="edgeStyle=orthogonalEdgeStyle;rounded=0;orthogonalLoop=1;jettySize=auto;html=1;" edge="1" parent="d-muOAlDr2GjQX8LwhFV-101" source="d-muOAlDr2GjQX8LwhFV-83" target="d-muOAlDr2GjQX8LwhFV-150">
          <mxGeometry relative="1" as="geometry" />
        </mxCell>
        <mxCell id="d-muOAlDr2GjQX8LwhFV-83" value="" style="strokeColor=#dddddd;shadow=1;strokeWidth=1;rounded=1;absoluteArcSize=1;arcSize=2;" vertex="1" parent="d-muOAlDr2GjQX8LwhFV-101">
          <mxGeometry x="120" y="180" width="190" height="60" as="geometry" />
        </mxCell>
        <mxCell id="d-muOAlDr2GjQX8LwhFV-84" value="&lt;font color=&quot;#000000&quot;&gt;Docker-Swarm-master&lt;/font&gt;&lt;br&gt;Local Computer Engine" style="dashed=0;connectable=0;html=1;fillColor=#5184F3;strokeColor=none;shape=mxgraph.gcp2.hexIcon;prIcon=compute_engine;part=1;labelPosition=right;verticalLabelPosition=middle;align=left;verticalAlign=middle;spacingLeft=5;fontColor=#999999;fontSize=12;" vertex="1" parent="d-muOAlDr2GjQX8LwhFV-83">
          <mxGeometry y="0.5" width="44" height="39" relative="1" as="geometry">
            <mxPoint x="5" y="-19.5" as="offset" />
          </mxGeometry>
        </mxCell>
        <mxCell id="d-muOAlDr2GjQX8LwhFV-85" value="" style="edgeStyle=orthogonalEdgeStyle;rounded=0;orthogonalLoop=1;jettySize=auto;html=1;" edge="1" parent="d-muOAlDr2GjQX8LwhFV-101" source="d-muOAlDr2GjQX8LwhFV-80" target="d-muOAlDr2GjQX8LwhFV-83">
          <mxGeometry relative="1" as="geometry" />
        </mxCell>
        <mxCell id="d-muOAlDr2GjQX8LwhFV-86" value="" style="strokeColor=#dddddd;shadow=1;strokeWidth=1;rounded=1;absoluteArcSize=1;arcSize=2;" vertex="1" parent="d-muOAlDr2GjQX8LwhFV-101">
          <mxGeometry x="350" y="120" width="190" height="60" as="geometry" />
        </mxCell>
        <mxCell id="d-muOAlDr2GjQX8LwhFV-87" value="&lt;font color=&quot;#000000&quot;&gt;Docker-Swarm-slave&lt;/font&gt;&lt;br&gt;Compute Engine" style="dashed=0;connectable=0;html=1;fillColor=#5184F3;strokeColor=none;shape=mxgraph.gcp2.hexIcon;prIcon=compute_engine;part=1;labelPosition=right;verticalLabelPosition=middle;align=left;verticalAlign=middle;spacingLeft=5;fontColor=#999999;fontSize=12;" vertex="1" parent="d-muOAlDr2GjQX8LwhFV-86">
          <mxGeometry y="0.5" width="44" height="39" relative="1" as="geometry">
            <mxPoint x="5" y="-19.5" as="offset" />
          </mxGeometry>
        </mxCell>
        <mxCell id="d-muOAlDr2GjQX8LwhFV-97" style="edgeStyle=orthogonalEdgeStyle;rounded=0;orthogonalLoop=1;jettySize=auto;html=1;entryX=0;entryY=0.5;entryDx=0;entryDy=0;" edge="1" parent="d-muOAlDr2GjQX8LwhFV-101" source="d-muOAlDr2GjQX8LwhFV-83" target="d-muOAlDr2GjQX8LwhFV-86">
          <mxGeometry relative="1" as="geometry" />
        </mxCell>
        <mxCell id="d-muOAlDr2GjQX8LwhFV-88" value="" style="strokeColor=#dddddd;shadow=1;strokeWidth=1;rounded=1;absoluteArcSize=1;arcSize=2;" vertex="1" parent="d-muOAlDr2GjQX8LwhFV-101">
          <mxGeometry x="350" y="200" width="190" height="60" as="geometry" />
        </mxCell>
        <mxCell id="d-muOAlDr2GjQX8LwhFV-89" value="&lt;font color=&quot;#000000&quot;&gt;Docker-Swarm-Slave&lt;/font&gt;&lt;br&gt;Compute Engine" style="dashed=0;connectable=0;html=1;fillColor=#5184F3;strokeColor=none;shape=mxgraph.gcp2.hexIcon;prIcon=compute_engine;part=1;labelPosition=right;verticalLabelPosition=middle;align=left;verticalAlign=middle;spacingLeft=5;fontColor=#999999;fontSize=12;" vertex="1" parent="d-muOAlDr2GjQX8LwhFV-88">
          <mxGeometry y="0.5" width="44" height="39" relative="1" as="geometry">
            <mxPoint x="5" y="-19.5" as="offset" />
          </mxGeometry>
        </mxCell>
        <mxCell id="d-muOAlDr2GjQX8LwhFV-98" style="edgeStyle=orthogonalEdgeStyle;rounded=0;orthogonalLoop=1;jettySize=auto;html=1;" edge="1" parent="d-muOAlDr2GjQX8LwhFV-101" source="d-muOAlDr2GjQX8LwhFV-83" target="d-muOAlDr2GjQX8LwhFV-88">
          <mxGeometry relative="1" as="geometry" />
        </mxCell>
        <mxCell id="d-muOAlDr2GjQX8LwhFV-90" value="" style="strokeColor=#dddddd;shadow=1;strokeWidth=1;rounded=1;absoluteArcSize=1;arcSize=2;" vertex="1" parent="d-muOAlDr2GjQX8LwhFV-101">
          <mxGeometry x="350" y="280" width="190" height="60" as="geometry" />
        </mxCell>
        <mxCell id="d-muOAlDr2GjQX8LwhFV-91" value="&lt;font color=&quot;#000000&quot;&gt;Docker-Swarm-Slave&lt;/font&gt;&lt;br&gt;Compute Engine" style="dashed=0;connectable=0;html=1;fillColor=#5184F3;strokeColor=none;shape=mxgraph.gcp2.hexIcon;prIcon=compute_engine;part=1;labelPosition=right;verticalLabelPosition=middle;align=left;verticalAlign=middle;spacingLeft=5;fontColor=#999999;fontSize=12;" vertex="1" parent="d-muOAlDr2GjQX8LwhFV-90">
          <mxGeometry y="0.5" width="44" height="39" relative="1" as="geometry">
            <mxPoint x="5" y="-19.5" as="offset" />
          </mxGeometry>
        </mxCell>
        <mxCell id="d-muOAlDr2GjQX8LwhFV-99" style="edgeStyle=orthogonalEdgeStyle;rounded=0;orthogonalLoop=1;jettySize=auto;html=1;entryX=0;entryY=0.5;entryDx=0;entryDy=0;" edge="1" parent="d-muOAlDr2GjQX8LwhFV-101" source="d-muOAlDr2GjQX8LwhFV-83" target="d-muOAlDr2GjQX8LwhFV-90">
          <mxGeometry relative="1" as="geometry" />
        </mxCell>
        <mxCell id="d-muOAlDr2GjQX8LwhFV-92" value="Services" style="html=1;strokeColor=none;fillColor=#0079D6;labelPosition=center;verticalLabelPosition=middle;verticalAlign=top;align=center;fontSize=12;outlineConnect=0;spacingTop=-6;fontColor=#FFFFFF;shape=mxgraph.sitemap.services;" vertex="1" parent="d-muOAlDr2GjQX8LwhFV-101">
          <mxGeometry x="590" y="195" width="120" height="70" as="geometry" />
        </mxCell>
        <mxCell id="d-muOAlDr2GjQX8LwhFV-93" style="edgeStyle=orthogonalEdgeStyle;rounded=0;orthogonalLoop=1;jettySize=auto;html=1;" edge="1" parent="d-muOAlDr2GjQX8LwhFV-101" source="d-muOAlDr2GjQX8LwhFV-86" target="d-muOAlDr2GjQX8LwhFV-92">
          <mxGeometry relative="1" as="geometry" />
        </mxCell>
        <mxCell id="d-muOAlDr2GjQX8LwhFV-94" value="" style="edgeStyle=orthogonalEdgeStyle;rounded=0;orthogonalLoop=1;jettySize=auto;html=1;" edge="1" parent="d-muOAlDr2GjQX8LwhFV-101" source="d-muOAlDr2GjQX8LwhFV-88" target="d-muOAlDr2GjQX8LwhFV-92">
          <mxGeometry relative="1" as="geometry" />
        </mxCell>
        <mxCell id="d-muOAlDr2GjQX8LwhFV-96" style="edgeStyle=orthogonalEdgeStyle;rounded=0;orthogonalLoop=1;jettySize=auto;html=1;" edge="1" parent="d-muOAlDr2GjQX8LwhFV-101" source="d-muOAlDr2GjQX8LwhFV-90" target="d-muOAlDr2GjQX8LwhFV-92">
          <mxGeometry relative="1" as="geometry" />
        </mxCell>
        <mxCell id="d-muOAlDr2GjQX8LwhFV-150" value="Services" style="html=1;strokeColor=none;fillColor=#0079D6;labelPosition=center;verticalLabelPosition=middle;verticalAlign=top;align=center;fontSize=12;outlineConnect=0;spacingTop=-6;fontColor=#FFFFFF;shape=mxgraph.sitemap.services;" vertex="1" parent="d-muOAlDr2GjQX8LwhFV-101">
          <mxGeometry x="155" y="270" width="120" height="70" as="geometry" />
        </mxCell>
        <mxCell id="d-muOAlDr2GjQX8LwhFV-102" value="" style="group" vertex="1" connectable="0" parent="1">
          <mxGeometry x="880" y="850" width="810" height="450" as="geometry" />
        </mxCell>
        <mxCell id="d-muOAlDr2GjQX8LwhFV-103" value="Infrastructure&#xa;System" style="points=[[0,0,0],[0.25,0,0],[0.5,0,0],[0.75,0,0],[1,0,0],[1,0.25,0],[1,0.5,0],[1,0.75,0],[1,1,0],[0.75,1,0],[0.5,1,0],[0.25,1,0],[0,1,0],[0,0.75,0],[0,0.5,0],[0,0.25,0]];rounded=1;absoluteArcSize=1;arcSize=2;html=1;strokeColor=none;gradientColor=none;shadow=0;dashed=0;fontSize=12;fontColor=#9E9E9E;align=left;verticalAlign=top;spacing=10;spacingTop=-4;fillColor=#F3E5F5;" vertex="1" parent="d-muOAlDr2GjQX8LwhFV-102">
          <mxGeometry width="770" height="410" as="geometry" />
        </mxCell>
        <mxCell id="d-muOAlDr2GjQX8LwhFV-104" value="User 1" style="points=[[0,0,0],[0.25,0,0],[0.5,0,0],[0.75,0,0],[1,0,0],[1,0.25,0],[1,0.5,0],[1,0.75,0],[1,1,0],[0.75,1,0],[0.5,1,0],[0.25,1,0],[0,1,0],[0,0.75,0],[0,0.5,0],[0,0.25,0]];rounded=1;absoluteArcSize=1;arcSize=2;html=1;strokeColor=none;gradientColor=none;shadow=0;dashed=0;fontSize=12;fontColor=#9E9E9E;align=left;verticalAlign=top;spacing=10;spacingTop=-4;" vertex="1" parent="d-muOAlDr2GjQX8LwhFV-102">
          <mxGeometry x="10" y="50" width="740" height="330" as="geometry" />
        </mxCell>
        <mxCell id="d-muOAlDr2GjQX8LwhFV-105" value="External Data&#xa;Sources" style="points=[[0,0,0],[0.25,0,0],[0.5,0,0],[0.75,0,0],[1,0,0],[1,0.25,0],[1,0.5,0],[1,0.75,0],[1,1,0],[0.75,1,0],[0.5,1,0],[0.25,1,0],[0,1,0],[0,0.75,0],[0,0.5,0],[0,0.25,0]];rounded=1;absoluteArcSize=1;arcSize=2;html=1;strokeColor=none;gradientColor=none;shadow=0;dashed=0;fontSize=12;fontColor=#9E9E9E;align=left;verticalAlign=top;spacing=10;spacingTop=-4;fillColor=#FFF8E1;" vertex="1" parent="d-muOAlDr2GjQX8LwhFV-102">
          <mxGeometry x="340" y="70" width="400" height="300" as="geometry" />
        </mxCell>
        <mxCell id="d-muOAlDr2GjQX8LwhFV-106" value="User" style="strokeColor=#dddddd;shadow=1;strokeWidth=1;rounded=1;absoluteArcSize=1;arcSize=2;labelPosition=center;verticalLabelPosition=middle;align=center;verticalAlign=bottom;spacingLeft=0;fontColor=#999999;fontSize=12;whiteSpace=wrap;spacingBottom=2;" vertex="1" parent="d-muOAlDr2GjQX8LwhFV-102">
          <mxGeometry x="20" y="80" width="70" height="85" as="geometry" />
        </mxCell>
        <mxCell id="d-muOAlDr2GjQX8LwhFV-107" value="" style="dashed=0;connectable=0;html=1;fillColor=#757575;strokeColor=none;shape=mxgraph.gcp2.users;part=1;" vertex="1" parent="d-muOAlDr2GjQX8LwhFV-106">
          <mxGeometry x="0.5" width="50" height="31.5" relative="1" as="geometry">
            <mxPoint x="-25" y="19.25" as="offset" />
          </mxGeometry>
        </mxCell>
        <mxCell id="d-muOAlDr2GjQX8LwhFV-153" style="edgeStyle=orthogonalEdgeStyle;rounded=0;orthogonalLoop=1;jettySize=auto;html=1;" edge="1" parent="d-muOAlDr2GjQX8LwhFV-102" source="d-muOAlDr2GjQX8LwhFV-108" target="d-muOAlDr2GjQX8LwhFV-152">
          <mxGeometry relative="1" as="geometry" />
        </mxCell>
        <mxCell id="d-muOAlDr2GjQX8LwhFV-108" value="" style="strokeColor=#dddddd;shadow=1;strokeWidth=1;rounded=1;absoluteArcSize=1;arcSize=2;" vertex="1" parent="d-muOAlDr2GjQX8LwhFV-102">
          <mxGeometry x="120" y="200" width="190" height="60" as="geometry" />
        </mxCell>
        <mxCell id="d-muOAlDr2GjQX8LwhFV-109" value="&lt;font color=&quot;#000000&quot;&gt;Docker-Swarm-master&lt;/font&gt;&lt;br&gt;Local Computer Engine" style="dashed=0;connectable=0;html=1;fillColor=#5184F3;strokeColor=none;shape=mxgraph.gcp2.hexIcon;prIcon=compute_engine;part=1;labelPosition=right;verticalLabelPosition=middle;align=left;verticalAlign=middle;spacingLeft=5;fontColor=#999999;fontSize=12;" vertex="1" parent="d-muOAlDr2GjQX8LwhFV-108">
          <mxGeometry y="0.5" width="44" height="39" relative="1" as="geometry">
            <mxPoint x="5" y="-19.5" as="offset" />
          </mxGeometry>
        </mxCell>
        <mxCell id="d-muOAlDr2GjQX8LwhFV-111" value="" style="strokeColor=#dddddd;shadow=1;strokeWidth=1;rounded=1;absoluteArcSize=1;arcSize=2;" vertex="1" parent="d-muOAlDr2GjQX8LwhFV-102">
          <mxGeometry x="350" y="120" width="190" height="60" as="geometry" />
        </mxCell>
        <mxCell id="d-muOAlDr2GjQX8LwhFV-112" value="&lt;font color=&quot;#000000&quot;&gt;Docker-Swarm-slave&lt;/font&gt;&lt;br&gt;Compute Engine" style="dashed=0;connectable=0;html=1;fillColor=#5184F3;strokeColor=none;shape=mxgraph.gcp2.hexIcon;prIcon=compute_engine;part=1;labelPosition=right;verticalLabelPosition=middle;align=left;verticalAlign=middle;spacingLeft=5;fontColor=#999999;fontSize=12;" vertex="1" parent="d-muOAlDr2GjQX8LwhFV-111">
          <mxGeometry y="0.5" width="44" height="39" relative="1" as="geometry">
            <mxPoint x="5" y="-19.5" as="offset" />
          </mxGeometry>
        </mxCell>
        <mxCell id="d-muOAlDr2GjQX8LwhFV-113" style="edgeStyle=orthogonalEdgeStyle;rounded=0;orthogonalLoop=1;jettySize=auto;html=1;entryX=0;entryY=0.5;entryDx=0;entryDy=0;" edge="1" parent="d-muOAlDr2GjQX8LwhFV-102" source="d-muOAlDr2GjQX8LwhFV-108" target="d-muOAlDr2GjQX8LwhFV-111">
          <mxGeometry relative="1" as="geometry" />
        </mxCell>
        <mxCell id="d-muOAlDr2GjQX8LwhFV-114" value="" style="strokeColor=#dddddd;shadow=1;strokeWidth=1;rounded=1;absoluteArcSize=1;arcSize=2;" vertex="1" parent="d-muOAlDr2GjQX8LwhFV-102">
          <mxGeometry x="350" y="200" width="190" height="60" as="geometry" />
        </mxCell>
        <mxCell id="d-muOAlDr2GjQX8LwhFV-115" value="&lt;font color=&quot;#000000&quot;&gt;Docker-Swarm-Slave&lt;/font&gt;&lt;br&gt;Compute Engine" style="dashed=0;connectable=0;html=1;fillColor=#5184F3;strokeColor=none;shape=mxgraph.gcp2.hexIcon;prIcon=compute_engine;part=1;labelPosition=right;verticalLabelPosition=middle;align=left;verticalAlign=middle;spacingLeft=5;fontColor=#999999;fontSize=12;" vertex="1" parent="d-muOAlDr2GjQX8LwhFV-114">
          <mxGeometry y="0.5" width="44" height="39" relative="1" as="geometry">
            <mxPoint x="5" y="-19.5" as="offset" />
          </mxGeometry>
        </mxCell>
        <mxCell id="d-muOAlDr2GjQX8LwhFV-116" style="edgeStyle=orthogonalEdgeStyle;rounded=0;orthogonalLoop=1;jettySize=auto;html=1;" edge="1" parent="d-muOAlDr2GjQX8LwhFV-102" source="d-muOAlDr2GjQX8LwhFV-108" target="d-muOAlDr2GjQX8LwhFV-114">
          <mxGeometry relative="1" as="geometry" />
        </mxCell>
        <mxCell id="d-muOAlDr2GjQX8LwhFV-117" value="" style="strokeColor=#dddddd;shadow=1;strokeWidth=1;rounded=1;absoluteArcSize=1;arcSize=2;" vertex="1" parent="d-muOAlDr2GjQX8LwhFV-102">
          <mxGeometry x="350" y="280" width="190" height="60" as="geometry" />
        </mxCell>
        <mxCell id="d-muOAlDr2GjQX8LwhFV-118" value="&lt;font color=&quot;#000000&quot;&gt;Docker-Swarm-Slave&lt;/font&gt;&lt;br&gt;Compute Engine" style="dashed=0;connectable=0;html=1;fillColor=#5184F3;strokeColor=none;shape=mxgraph.gcp2.hexIcon;prIcon=compute_engine;part=1;labelPosition=right;verticalLabelPosition=middle;align=left;verticalAlign=middle;spacingLeft=5;fontColor=#999999;fontSize=12;" vertex="1" parent="d-muOAlDr2GjQX8LwhFV-117">
          <mxGeometry y="0.5" width="44" height="39" relative="1" as="geometry">
            <mxPoint x="5" y="-19.5" as="offset" />
          </mxGeometry>
        </mxCell>
        <mxCell id="d-muOAlDr2GjQX8LwhFV-119" style="edgeStyle=orthogonalEdgeStyle;rounded=0;orthogonalLoop=1;jettySize=auto;html=1;entryX=0;entryY=0.5;entryDx=0;entryDy=0;" edge="1" parent="d-muOAlDr2GjQX8LwhFV-102" source="d-muOAlDr2GjQX8LwhFV-108" target="d-muOAlDr2GjQX8LwhFV-117">
          <mxGeometry relative="1" as="geometry" />
        </mxCell>
        <mxCell id="d-muOAlDr2GjQX8LwhFV-120" value="Services" style="html=1;strokeColor=none;fillColor=#0079D6;labelPosition=center;verticalLabelPosition=middle;verticalAlign=top;align=center;fontSize=12;outlineConnect=0;spacingTop=-6;fontColor=#FFFFFF;shape=mxgraph.sitemap.services;" vertex="1" parent="d-muOAlDr2GjQX8LwhFV-102">
          <mxGeometry x="590" y="195" width="120" height="70" as="geometry" />
        </mxCell>
        <mxCell id="d-muOAlDr2GjQX8LwhFV-121" style="edgeStyle=orthogonalEdgeStyle;rounded=0;orthogonalLoop=1;jettySize=auto;html=1;" edge="1" parent="d-muOAlDr2GjQX8LwhFV-102" source="d-muOAlDr2GjQX8LwhFV-111" target="d-muOAlDr2GjQX8LwhFV-120">
          <mxGeometry relative="1" as="geometry" />
        </mxCell>
        <mxCell id="d-muOAlDr2GjQX8LwhFV-122" value="" style="edgeStyle=orthogonalEdgeStyle;rounded=0;orthogonalLoop=1;jettySize=auto;html=1;" edge="1" parent="d-muOAlDr2GjQX8LwhFV-102" source="d-muOAlDr2GjQX8LwhFV-114" target="d-muOAlDr2GjQX8LwhFV-120">
          <mxGeometry relative="1" as="geometry" />
        </mxCell>
        <mxCell id="d-muOAlDr2GjQX8LwhFV-123" style="edgeStyle=orthogonalEdgeStyle;rounded=0;orthogonalLoop=1;jettySize=auto;html=1;" edge="1" parent="d-muOAlDr2GjQX8LwhFV-102" source="d-muOAlDr2GjQX8LwhFV-117" target="d-muOAlDr2GjQX8LwhFV-120">
          <mxGeometry relative="1" as="geometry" />
        </mxCell>
        <mxCell id="d-muOAlDr2GjQX8LwhFV-152" value="Services" style="html=1;strokeColor=none;fillColor=#0079D6;labelPosition=center;verticalLabelPosition=middle;verticalAlign=top;align=center;fontSize=12;outlineConnect=0;spacingTop=-6;fontColor=#FFFFFF;shape=mxgraph.sitemap.services;" vertex="1" parent="d-muOAlDr2GjQX8LwhFV-102">
          <mxGeometry x="155" y="290" width="120" height="70" as="geometry" />
        </mxCell>
        <mxCell id="d-muOAlDr2GjQX8LwhFV-127" style="edgeStyle=orthogonalEdgeStyle;rounded=0;orthogonalLoop=1;jettySize=auto;html=1;" edge="1" parent="1" source="d-muOAlDr2GjQX8LwhFV-124" target="d-muOAlDr2GjQX8LwhFV-108">
          <mxGeometry relative="1" as="geometry" />
        </mxCell>
        <mxCell id="d-muOAlDr2GjQX8LwhFV-124" value="" style="strokeColor=#dddddd;shadow=1;strokeWidth=1;rounded=1;absoluteArcSize=1;arcSize=2;" vertex="1" parent="1">
          <mxGeometry x="1045" y="944.5" width="100" height="56" as="geometry" />
        </mxCell>
        <mxCell id="d-muOAlDr2GjQX8LwhFV-125" value="Network&#xa;Load&#xa;Balancer" style="dashed=0;connectable=0;html=1;fillColor=#757575;strokeColor=none;shape=mxgraph.gcp2.network_load_balancer;part=1;labelPosition=right;verticalLabelPosition=middle;align=left;verticalAlign=middle;spacingLeft=5;fontSize=12;" vertex="1" parent="d-muOAlDr2GjQX8LwhFV-124">
          <mxGeometry y="0.5" width="32" height="32" relative="1" as="geometry">
            <mxPoint x="5" y="-16" as="offset" />
          </mxGeometry>
        </mxCell>
        <mxCell id="d-muOAlDr2GjQX8LwhFV-126" value="" style="edgeStyle=orthogonalEdgeStyle;rounded=0;orthogonalLoop=1;jettySize=auto;html=1;" edge="1" parent="1" source="d-muOAlDr2GjQX8LwhFV-106" target="d-muOAlDr2GjQX8LwhFV-124">
          <mxGeometry relative="1" as="geometry" />
        </mxCell>
      </root>
    </mxGraphModel>
  </diagram>
</mxfile>
